<?xml version="1.0" encoding="utf-8"?>
<!-- Generator: Adobe Illustrator 15.0.2, SVG Export Plug-In . SVG Version: 6.00 Build 0)  -->
<!DOCTYPE svg PUBLIC "-//W3C//DTD SVG 1.1//EN" "http://www.w3.org/Graphics/SVG/1.1/DTD/svg11.dtd">
<svg version="1.1" id="Layer_1" xmlns="http://www.w3.org/2000/svg" xmlns:xlink="http://www.w3.org/1999/xlink" x="0px" y="0px"
	 width="66px" height="44px" viewBox="0 0 66 44" enable-background="new 0 0 66 44" xml:space="preserve">
<g>
	<path fill="#7AAC58" d="M49.161,36.178c3.16-0.579,8.969-5.575,8.171-7.804c-0.879-2.451,4.487-1.974,4.487-1.974
		s-9.559,1.542-12.577,1.374c-1.835-0.102-24.905-8.379-40.455,0.039c-15.548,8.42,3.354,8.133,5.803,9.429
		C17.044,38.54,34.49,38.866,49.161,36.178z"/>
	<path d="M25.487,38.268c0,0-0.001,0-0.001,0c-5.506,0-9.792-0.385-10.919-0.981c-0.547-0.289-1.957-0.503-3.588-0.751
		c-3.546-0.538-7.958-1.208-8.298-3.153c-0.249-1.425,1.741-3.261,6.083-5.612c4.634-2.509,10.412-3.78,17.175-3.78
		c8.941,0,17.208,2.182,21.182,3.23c1.118,0.295,1.856,0.49,2.125,0.505c0.151,0.009,0.325,0.013,0.515,0.013
		c1.894,0,5.343-0.42,7.908-0.772c0.722-0.538,2.105-0.651,3.142-0.651c0.583,0,1.01,0.037,1.015,0.037l0.398,0.035l-0.396,0.064
		c-0.019,0.002-1.845,0.297-4.12,0.61c-0.412,0.317-0.522,0.754-0.328,1.297c0.185,0.515,0.042,1.184-0.422,1.989
		c-1.395,2.42-5.397,5.442-7.787,5.88C42.092,37.524,33.46,38.268,25.487,38.268z M25.938,24.089
		c-6.746,0-12.508,1.268-17.127,3.769c-4.24,2.296-6.27,4.149-6.032,5.507c0.327,1.875,4.886,2.566,8.214,3.072
		c1.641,0.249,3.058,0.464,3.62,0.762c1.114,0.589,5.382,0.97,10.873,0.97c7.967,0,16.593-0.743,23.667-2.039
		c2.367-0.435,6.334-3.432,7.718-5.832c0.449-0.779,0.589-1.42,0.415-1.906c-0.19-0.531-0.11-0.97,0.239-1.306l-0.02,0.003
		c-2.548,0.348-5.889,0.749-7.745,0.749c-0.191,0-0.367-0.004-0.521-0.013c-0.278-0.016-1.021-0.211-2.145-0.508
		C43.125,26.269,34.865,24.089,25.938,24.089z M60.81,26.413c-0.943,0-2.177,0.094-2.912,0.52c1.512-0.209,2.802-0.407,3.455-0.51
		C61.199,26.417,61.014,26.413,60.81,26.413z"/>
</g>
<g>
	<path fill="#7AAC58" d="M57.327,34.254c9.411-3.125,8.527-4.627,7.724-6.854c-0.874-2.453-3.277-1.34-3.277-1.34
		s-9.401-2.749-12.425-2.916c-1.829-0.105-18.324-10.781-35.714-1.896C-8.217,32.412,1.992,41.382,9.899,42.997
		C23.422,45.762,38.55,40.489,57.327,34.254z"/>
	<path d="M17.688,43.951C17.687,43.951,17.688,43.951,17.688,43.951c-2.773,0-5.333-0.248-7.828-0.758
		c-4.186-0.855-8.951-3.688-9.523-7.884c-0.436-3.195,1.502-8.26,13.208-14.24c4.613-2.357,9.599-3.552,14.819-3.552
		c8.443,0,15.516,3.116,18.915,4.614c1.009,0.445,1.806,0.796,2.082,0.812c2.909,0.161,11.476,2.636,12.4,2.905
		c0.177-0.072,0.656-0.24,1.222-0.24c0.749,0,1.749,0.299,2.257,1.724l0.073,0.202c0.318,0.87,0.619,1.692,0.197,2.565
		c-0.665,1.376-3.093,2.675-8.119,4.344l-1.812,0.603C41.208,39.824,28.795,43.951,17.688,43.951z M28.363,17.917
		c-5.157,0-10.082,1.181-14.638,3.509C2.23,27.299,0.315,32.188,0.733,35.256c0.521,3.825,5.026,6.691,9.207,7.545
		c2.468,0.505,5.002,0.75,7.748,0.75c11.043,0.001,23.426-4.117,37.765-8.885l1.812-0.602c4.849-1.61,7.281-2.887,7.886-4.139
		c0.348-0.722,0.088-1.432-0.213-2.254l-0.074-0.204c-0.345-0.969-0.978-1.46-1.88-1.46c-0.609,0-1.12,0.231-1.125,0.233
		l-0.068,0.031l-0.071-0.021c-0.095-0.027-9.414-2.745-12.38-2.909c-0.349-0.02-1.054-0.33-2.221-0.845
		C43.743,21.011,36.722,17.917,28.363,17.917z"/>
</g>
<path fill="#699149" d="M5.321,33.426c0,0,7.892-6.11,11.713-8.026s-4.31-1.916-4.31-1.916L5.321,33.426z"/>
<path d="M25.327,17.372c0,0-12.186,6.244-15.936,11.071c-5.366,6.911-5.041,6.179-1.281,0.597
	C11.17,24.499,25.327,17.372,25.327,17.372z"/>
<g>
	<path fill="#7AAC58" d="M51.152,3.863c7.262,5.405,6.18,24.511,6.18,24.511s-14.915,7.428-28.336,7.85
		c-11.007,0.346-16.327-1.721-17.699-3.129c-1.367-1.41-1.9-11.496-1.174-17.092c0.731-5.595,4.487-10.245,11.058-13.009
		C29.266-0.408,44.333-1.214,51.152,3.863z"/>
	<path d="M26.607,36.462c-9.085,0-14.002-1.738-15.453-3.228C9.706,31.74,9.185,21.673,9.925,15.977
		C10.68,10.201,14.65,5.525,21.103,2.81c4.108-1.729,9.894-2.761,15.475-2.761c6.311,0,11.529,1.297,14.693,3.653
		c7.265,5.407,6.305,23.898,6.26,24.684l-0.006,0.115l-0.104,0.052c-0.149,0.075-15.107,7.452-28.418,7.871
		C28.189,36.449,27.383,36.462,26.607,36.462z M36.578,0.449c-5.531,0-11.258,1.021-15.32,2.73
		c-6.317,2.657-10.201,7.221-10.937,12.85c-0.76,5.849-0.111,15.658,1.119,16.926c1.124,1.154,5.583,3.106,15.167,3.106
		c0.772,0,1.574-0.013,2.383-0.038c12.637-0.396,26.791-7.118,28.148-7.777c0.072-1.605,0.695-19.162-6.104-24.223
		C47.937,1.718,42.804,0.449,36.578,0.449z"/>
</g>
<path fill="#83B55B" d="M51.15,4.217C21.872-0.077,16.2,8.691,10.282,16.247c0.731-5.595,4.812-10.489,11.383-13.253
	C29.75-0.408,44.33-0.86,51.15,4.217z"/>
<g>
	<path fill="#9467A5" d="M44.841,25.895c5.916-1.312,12.395-4.36,12.395-4.36c0.102,3.055,0.152,6.314,0.152,6.314
		s-8.074,4.984-16.444,7.033c-3.344,0.818-6.397,1.27-9.843,1.379c-11.007,0.346-18.63-1.207-20.002-2.613
		c-0.655-0.674-0.966-4.564-1.199-7.753c0,0,8.299,2.155,15.428,2.061C32.482,27.861,38.012,27.409,44.841,25.895z"/>
	<path d="M28.026,36.51c-9.363,0-15.783-1.402-17.071-2.723c-0.678-0.697-0.981-4.124-1.256-7.878l-0.02-0.278l0.27,0.07
		c0.079,0.021,8.003,2.057,14.916,2.057c0.151-0.015,0.306-0.001,0.459-0.003c6.695-0.088,12.288-0.462,19.473-2.056
		c5.826-1.291,12.288-4.315,12.353-4.346l0.274-0.13l0.011,0.305c0.101,3.021,0.151,6.284,0.152,6.317l0.002,0.113l-0.097,0.06
		c-0.081,0.05-8.197,5.024-16.502,7.058c-3.477,0.851-6.525,1.277-9.884,1.385C30.072,36.493,29.036,36.51,28.026,36.51z
		 M10.119,26.155c0.183,2.49,0.514,6.727,1.123,7.353c1.054,1.08,6.958,2.602,16.784,2.602c1.005,0,2.037-0.017,3.068-0.049
		c3.33-0.105,6.353-0.529,9.801-1.373c7.754-1.897,15.351-6.384,16.29-6.95c-0.01-0.583-0.057-3.286-0.141-5.895
		c-1.301,0.591-6.978,3.098-12.161,4.247c-7.218,1.601-12.833,1.978-19.554,2.065c-0.153,0.002-0.307,0.003-0.461,0.003
		c-0.001,0-0.001,0-0.002,0C18.624,28.158,11.573,26.513,10.119,26.155z"/>
</g>
<path d="M32.264,38.045c0,0,14.844-5.546,20.14-7.978c6.472-2.97,6.479-2.95,9.37-4.008l1.642-0.165c0,0-5.732,2.442-9.646,4.307
	C41.33,36.132,32.264,38.045,32.264,38.045z"/>
<polygon fill="#57773A" points="57.638,25.153 61.416,26.19 57.547,27.73 "/>
<polygon fill="#996FAD" points="35.572,27.792 35.572,35.526 42.402,34.122 42.402,26.735 "/>
<g id="Layer_2">
	<g>
		<g>
			<rect x="17.873" y="17.156" transform="matrix(0.9956 0.0932 -0.0932 0.9956 1.7785 -1.6838)" width="2.074" height="2.073"/>
			<path d="M19.891,19.376l-0.05-0.006l-2.114-0.197l0.004-0.051l0.198-2.113l0.05,0.004l2.115,0.199l-0.005,0.049L19.891,19.376z
				 M17.835,19.083l1.965,0.184l0.184-1.965l-1.966-0.185L17.835,19.083z"/>
		</g>
		<g>
			<rect x="21.689" y="17.513" transform="matrix(0.9956 0.0933 -0.0933 0.9956 1.8297 -2.0393)" width="2.073" height="2.073"/>
			<path d="M23.706,19.732l-0.05-0.005l-2.113-0.198l0.005-0.05l0.198-2.113l0.05,0.004l2.113,0.199l-0.005,0.049L23.706,19.732z
				 M21.651,19.439l1.964,0.185l0.184-1.965l-1.964-0.185L21.651,19.439z"/>
		</g>
		<g>
			<rect x="25.504" y="17.869" transform="matrix(0.9956 0.0932 -0.0932 0.9956 1.8783 -2.3921)" width="2.074" height="2.074"/>
			<path d="M27.521,20.09l-0.05-0.005l-2.115-0.198l0.005-0.05l0.199-2.114l0.05,0.005l2.114,0.198l-0.005,0.05L27.521,20.09z
				 M25.466,19.797l1.965,0.185l0.184-1.966l-1.965-0.185L25.466,19.797z"/>
		</g>
		<g>
			<rect x="18.222" y="13.518" transform="matrix(0.9956 0.0933 -0.0933 0.9956 1.4496 -1.9113)" width="5.906" height="2.074"/>
			<path d="M24.063,15.917l-0.05-0.005l-5.93-0.556l0.005-0.05l0.199-2.114l0.05,0.004l5.929,0.556l-0.004,0.05L24.063,15.917z
				 M18.192,15.267l5.781,0.542l0.184-1.966l-5.781-0.542L18.192,15.267z"/>
		</g>
		<g>
			<rect x="25.861" y="14.054" transform="matrix(0.9956 0.0932 -0.0932 0.9956 1.5237 -2.4415)" width="2.074" height="2.073"/>
			<path d="M27.879,16.274l-0.05-0.005l-2.115-0.198l0.004-0.05l0.198-2.114l0.05,0.005l2.115,0.199l-0.004,0.05L27.879,16.274z
				 M25.824,15.981l1.966,0.184l0.184-1.965l-1.966-0.184L25.824,15.981z"/>
		</g>
		<g>
			<rect x="17.499" y="21.328" transform="matrix(0.9956 0.0933 -0.0933 0.9956 2.1832 -1.9886)" width="9.738" height="2.073"/>
			<path d="M27.164,23.905l-0.05-0.004l-9.746-0.914l0.005-0.05l0.198-2.113l0.05,0.005l9.746,0.912l-0.005,0.05L27.164,23.905z
				 M17.478,22.897l9.596,0.899l0.184-1.966l-9.597-0.898L17.478,22.897z"/>
		</g>
	</g>
</g>
</svg>
