<svg xmlns="http://www.w3.org/2000/svg" width="66" height="44" viewBox="0 0 66 44"><path fill="#7AAC58" d="M49.161 36.178c3.16-.579 8.969-5.575 8.171-7.804-.879-2.451 4.487-1.974 4.487-1.974s-9.559 1.542-12.577 1.374c-1.835-.102-24.905-8.379-40.455.039-15.548 8.42 3.354 8.133 5.803 9.429 2.454 1.298 19.9 1.624 34.571-1.064z"/><path d="M25.487 38.268h-.001c-5.506 0-9.792-.385-10.919-.981-.547-.289-1.957-.503-3.588-.751-3.546-.538-7.958-1.208-8.298-3.153-.249-1.425 1.741-3.261 6.083-5.612 4.634-2.509 10.412-3.78 17.175-3.78 8.941 0 17.208 2.182 21.182 3.23 1.118.295 1.856.49 2.125.505l.515.013c1.894 0 5.343-.42 7.908-.772.722-.538 2.105-.651 3.142-.651.583 0 1.01.037 1.015.037l.398.035-.396.064c-.019.002-1.845.297-4.12.61-.412.317-.522.754-.328 1.297.185.515.042 1.184-.422 1.989-1.395 2.42-5.397 5.442-7.787 5.88-7.079 1.296-15.711 2.04-23.684 2.04zm.451-14.179c-6.746 0-12.508 1.268-17.127 3.769-4.24 2.296-6.27 4.149-6.032 5.507.327 1.875 4.886 2.566 8.214 3.072 1.641.249 3.058.464 3.62.762 1.114.589 5.382.97 10.873.97 7.967 0 16.593-.743 23.667-2.039 2.367-.435 6.334-3.432 7.718-5.832.449-.779.589-1.42.415-1.906-.19-.531-.11-.97.239-1.306l-.02.003c-2.548.348-5.889.749-7.745.749l-.521-.013c-.278-.016-1.021-.211-2.145-.508-3.969-1.048-12.229-3.228-21.156-3.228zm34.872 2.324c-.943 0-2.177.094-2.912.52 1.512-.209 2.802-.407 3.455-.51l-.543-.01z"/><path fill="#7AAC58" d="M57.327 34.254c9.411-3.125 8.527-4.627 7.724-6.854-.874-2.453-3.277-1.34-3.277-1.34s-9.401-2.749-12.425-2.916c-1.829-.105-18.324-10.781-35.714-1.896-21.852 11.164-11.643 20.134-3.736 21.749 13.523 2.765 28.651-2.508 47.428-8.743z"/><path d="M17.688 43.951c-2.773 0-5.333-.248-7.828-.758-4.186-.855-8.951-3.688-9.523-7.884-.436-3.195 1.502-8.26 13.208-14.24 4.613-2.357 9.599-3.552 14.819-3.552 8.443 0 15.516 3.116 18.915 4.614 1.009.445 1.806.796 2.082.812 2.909.161 11.476 2.636 12.4 2.905.177-.072.656-.24 1.222-.24.749 0 1.749.299 2.257 1.724l.073.202c.318.87.619 1.692.197 2.565-.665 1.376-3.093 2.675-8.119 4.344l-1.812.603c-14.371 4.778-26.784 8.905-37.891 8.905zm10.675-26.034c-5.157 0-10.082 1.181-14.638 3.509-11.495 5.873-13.41 10.762-12.992 13.83.521 3.825 5.026 6.691 9.207 7.545 2.468.505 5.002.75 7.748.75 11.043.001 23.426-4.117 37.765-8.885l1.812-.602c4.849-1.61 7.281-2.887 7.886-4.139.348-.722.088-1.432-.213-2.254l-.074-.204c-.345-.969-.978-1.46-1.88-1.46-.609 0-1.12.231-1.125.233l-.068.031-.071-.021c-.095-.027-9.414-2.745-12.38-2.909-.349-.02-1.054-.33-2.221-.845-3.376-1.485-10.397-4.579-18.756-4.579z"/><path fill="#699149" d="M5.321 33.426s7.892-6.11 11.713-8.026l-4.31-1.916-7.403 9.942z"/><path d="M25.327 17.372s-12.186 6.244-15.936 11.071c-5.366 6.911-5.041 6.179-1.281.597 3.06-4.541 17.217-11.668 17.217-11.668z"/><path fill="#7AAC58" d="M51.152 3.863c7.262 5.405 6.18 24.511 6.18 24.511s-14.915 7.428-28.336 7.85c-11.007.346-16.327-1.721-17.699-3.129-1.367-1.41-1.9-11.496-1.174-17.092.731-5.595 4.487-10.245 11.058-13.009 8.085-3.402 23.152-4.208 29.971.869z"/><path d="M26.607 36.462c-9.085 0-14.002-1.738-15.453-3.228-1.448-1.494-1.969-11.561-1.229-17.257.755-5.776 4.725-10.452 11.178-13.167 4.108-1.729 9.894-2.761 15.475-2.761 6.311 0 11.529 1.297 14.693 3.653 7.265 5.407 6.305 23.898 6.26 24.684l-.006.115-.104.052c-.149.075-15.107 7.452-28.418 7.871-.814.025-1.62.038-2.396.038zm9.971-36.013c-5.531 0-11.258 1.021-15.32 2.73-6.317 2.657-10.201 7.221-10.937 12.85-.76 5.849-.111 15.658 1.119 16.926 1.124 1.154 5.583 3.106 15.167 3.106.772 0 1.574-.013 2.383-.038 12.637-.396 26.791-7.118 28.148-7.777.072-1.605.695-19.162-6.104-24.223-3.097-2.305-8.23-3.574-14.456-3.574z"/><path fill="#83B55B" d="M51.15 4.217c-29.278-4.294-34.95 4.474-40.868 12.03.731-5.595 4.812-10.489 11.383-13.253 8.085-3.402 22.665-3.854 29.485 1.223z"/><path fill="#9467A5" d="M44.841 25.895c5.916-1.312 12.395-4.36 12.395-4.36.102 3.055.152 6.314.152 6.314s-8.074 4.984-16.444 7.033c-3.344.818-6.397 1.27-9.843 1.379-11.007.346-18.63-1.207-20.002-2.613-.655-.674-.966-4.564-1.199-7.753 0 0 8.299 2.155 15.428 2.061 7.154-.095 12.684-.547 19.513-2.061z"/><path d="M28.026 36.51c-9.363 0-15.783-1.402-17.071-2.723-.678-.697-.981-4.124-1.256-7.878l-.02-.278.27.07c.079.021 8.003 2.057 14.916 2.057l.459-.003c6.695-.088 12.288-.462 19.473-2.056 5.826-1.291 12.288-4.315 12.353-4.346l.274-.13.011.305c.101 3.021.151 6.284.152 6.317l.002.113-.097.06c-.081.05-8.197 5.024-16.502 7.058-3.477.851-6.525 1.277-9.884 1.385-1.034.032-2.07.049-3.08.049zm-17.907-10.355c.183 2.49.514 6.727 1.123 7.353 1.054 1.08 6.958 2.602 16.784 2.602 1.005 0 2.037-.017 3.068-.049 3.33-.105 6.353-.529 9.801-1.373 7.754-1.897 15.351-6.384 16.29-6.95-.01-.583-.057-3.286-.141-5.895-1.301.591-6.978 3.098-12.161 4.247-7.218 1.601-12.833 1.978-19.554 2.065l-.461.003h-.002c-6.242 0-13.293-1.645-14.747-2.003zM32.264 38.045s14.844-5.546 20.14-7.978c6.472-2.97 6.479-2.95 9.37-4.008l1.642-.165s-5.732 2.442-9.646 4.307c-12.44 5.931-21.506 7.844-21.506 7.844z"/><path fill="#57773A" d="M57.638 25.153l3.778 1.037-3.869 1.54z"/><path fill="#996FAD" d="M35.572 27.792v7.734l6.83-1.404v-7.387z"/><g><path d="M17.974 17.062l2.065.193-.193 2.064-2.065-.193zM19.891 19.376l-.05-.006-2.114-.197.004-.051.198-2.113.05.004 2.115.199-.005.049-.198 2.115zm-2.056-.293l1.965.184.184-1.965-1.966-.185-.183 1.966zM21.789 17.42l2.064.193-.193 2.064-2.064-.193zM23.706 19.732l-.05-.005-2.113-.198.005-.05.198-2.113.05.004 2.113.199-.005.049-.198 2.114zm-2.055-.293l1.964.185.184-1.965-1.964-.185-.184 1.965zM25.605 17.775l2.065.193-.193 2.065-2.065-.193zM27.521 20.09l-.05-.005-2.115-.198.005-.05.199-2.114.05.005 2.114.198-.005.05-.198 2.114zm-2.055-.293l1.965.185.184-1.966-1.965-.185-.184 1.966zM18.33 13.247l5.88.551-.194 2.065-5.88-.551zM24.063 15.917l-.05-.005-5.93-.556.005-.05.199-2.114.05.004 5.929.556-.004.05-.199 2.115zm-5.871-.65l5.781.542.184-1.966-5.781-.542-.184 1.966zM25.961 13.961l2.065.193-.193 2.064-2.065-.193zM27.879 16.274l-.05-.005-2.115-.198.004-.05.198-2.114.05.005 2.115.199-.004.05-.198 2.113zm-2.055-.293l1.966.184.184-1.965-1.966-.184-.184 1.965zM17.615 20.878l9.695.909-.193 2.064-9.695-.909zM27.164 23.905l-.05-.004-9.746-.914.005-.05.198-2.113.05.005 9.746.912-.005.05-.198 2.114zm-9.686-1.008l9.596.899.184-1.966-9.597-.898-.183 1.965z"/></g></svg>